<?xml version="1.0" encoding="UTF-8"?><svg viewBox="0 0 16 16" width="16px" height="16px" xmlns="http://www.w3.org/2000/svg" version="1.2" baseProfile="tiny"><g fill="#e0e0e0"><rect x="2" y="2" width="11" height="1"/><rect x="11" y="3" width="2" height="1"/><rect x="4" y="4" width="2" height="2"/><rect width="2" height="1" x="10" y="4"/><rect height="1" x="9" y="5" width="2"/><rect x="8" y="6" width="2" height="1"/><rect x="6" y="7" width="2" height="1"/><rect x="5" y="8" width="2" height="1"/><rect x="4" y="9" width="2" height="1"/><rect width="6" height="1" x="8" y="9"/><rect x="2" y="10" width="2" height="1"/><rect x="8" y="10" width="1" height="1"/><rect x="10" y="10" width="1" height="1"/><rect x="13" y="10" width="1" height="4"/><rect y="11" width="1" height="2" x="2"/><rect x="7" y="12" width="2" height="2"/><rect x="3" y="13" width="1" height="2"/><rect x="12" y="13" width="2" height="1"/><rect x="4" y="14" width="2" height="1"/><rect x="11" y="14" width="1" height="1"/><rect y="15" width="5" height="1" x="6"/></g></svg>