<?xml version="1.0" encoding="UTF-8"?><svg baseProfile="tiny" viewBox="0 0 16 16" width="16px" height="16px" xmlns="http://www.w3.org/2000/svg" version="1.2"><g fill="#d8d8d8"><rect x="7" y="1" width="1" height="1"/><rect x="7" y="3" width="1" height="1"/><rect x="10" y="3" width="2" height="1"/><rect x="3" y="4" width="1" height="3"/><rect x="8" y="6" width="1" height="3"/><rect width="3" height="1" x="10" y="6"/><rect x="12" y="7" width="1" height="1"/><rect x="1" y="8" width="1" height="2"/><rect x="4" y="9" width="1" height="2"/><rect x="12" y="10" width="1" height="1"/><rect x="7" y="11" width="4" height="1"/><rect height="1" x="2" y="13" width="1"/><rect x="6" y="14" width="2" height="1"/></g><g fill="#f3f3f3"><rect width="1" height="1" x="7" y="2"/><rect x="4" y="3" width="1" height="1"/><rect x="8" y="3" width="1" height="1"/><rect x="2" y="7" width="2" height="1"/><rect y="8" width="1" height="1" x="2"/><rect x="9" y="8" width="1" height="1"/><rect width="1" height="2" x="13" y="8"/><rect x="5" y="10" width="1" height="1"/><rect x="1" y="11" width="1" height="1"/><rect x="2" y="12" width="1" height="1"/><rect x="3" y="13" width="1" height="1"/><rect x="4" y="14" width="1" height="1"/><rect x="8" y="14" width="1" height="1"/></g><g fill="#fff"><rect width="2" height="1" x="5" y="3"/><rect x="9" y="3" width="1" height="1"/><rect width="1" height="1" x="9" y="6"/><rect x="4" y="8" width="1" height="1"/><rect x="1" y="10" width="1" height="1"/><rect x="6" y="11" width="1" height="1"/><rect x="11" y="11" width="1" height="1"/><rect height="1" x="3" y="14" width="1"/><rect x="5" y="14" width="1" height="1"/></g></svg>