<?xml version="1.0" encoding="UTF-8"?><svg viewBox="0 0 16 16" width="16px" height="16px" xmlns="http://www.w3.org/2000/svg" version="1.2" baseProfile="tiny"><g fill="#eaeaea"><rect y="3" width="1" height="1" x="1"/><rect width="1" height="1" x="3" y="4"/><rect x="10" y="4" width="1" height="1"/><rect x="4" y="5" width="1" height="1"/><rect x="5" y="6" width="1" height="2"/><rect y="9" width="1" height="1" x="5"/><rect width="2" height="1" x="8" y="9"/><rect x="12" y="9" width="1" height="1"/><rect height="1" x="10" y="10" width="2"/><rect height="1" x="6" y="11" width="1"/></g><g fill="#f3f3f3"><rect x="2" y="3" width="1" height="1"/><rect y="3" width="1" height="1" x="10"/><rect x="4" y="4" width="1" height="1"/><rect width="1" height="1" x="11" y="4"/><rect x="5" y="5" width="1" height="1"/><rect x="12" y="5" width="1" height="2"/><rect width="1" height="5" x="6" y="6"/><rect height="1" x="13" y="6" width="1"/><rect x="7" y="7" width="1" height="2"/><rect x="8" y="8" width="1" height="1"/><rect y="8" width="1" height="1" x="12"/><rect height="1" x="10" y="9" width="2"/><rect height="1" x="13" y="9" width="1"/><rect x="7" y="10" width="2" height="1"/><rect x="7" y="11" width="1" height="2"/><rect x="9" y="11" width="1" height="1"/><rect x="14" y="11" width="1" height="1"/><rect height="1" x="5" y="12" width="1"/><rect y="14" width="1" height="1" x="6"/></g><g fill="#ddd"><rect x="2" y="4" width="1" height="1"/><rect x="3" y="5" width="1" height="1"/><rect x="4" y="6" width="1" height="1"/><rect x="14" y="9" width="1" height="2"/><rect x="5" y="10" width="1" height="2"/><rect width="2" height="1" x="13" y="10"/><rect x="10" y="11" width="2" height="1"/><rect width="1" height="1" x="13" y="11"/><rect height="2" x="6" y="12" width="1"/><rect x="14" y="12" width="1" height="2"/></g><g fill="#e3e3e3"><rect x="11" y="5" width="1" height="1"/><rect width="1" height="1" x="5" y="8"/><rect width="1" height="1" x="7" y="9"/><rect y="10" width="1" height="1" x="9"/><rect width="1" height="1" x="12" y="10"/></g><rect x="13" y="7" width="1" height="1" fill="#f2f2f2"/><g fill="#fff"><rect x="14" y="7" width="1" height="1"/><rect width="1" height="1" x="14" y="8"/></g><rect x="13" y="8" width="1" height="1" fill="#e8e8e8"/></svg>