<?xml version="1.0" encoding="UTF-8"?><svg xmlns="http://www.w3.org/2000/svg" version="1.2" baseProfile="tiny" viewBox="0 0 16 16" width="16px" height="16px"><g fill="#fff"><rect width="1" height="1" x="7"/><rect x="8" y="1" width="1" height="1"/><rect width="1" height="1" x="6" y="2"/><rect y="2" width="1" height="1" x="7"/><rect x="9" y="2" width="1" height="1"/><rect x="6" y="3" width="1" height="1"/><rect x="9" y="3" width="1" height="1"/><rect x="10" y="3" width="1" height="1"/><rect width="1" height="1" x="5" y="4"/><rect x="11" y="4" width="1" height="1"/><rect x="4" y="5" width="1" height="1"/><rect x="12" y="5" width="1" height="1"/><rect y="6" width="1" height="1" x="4"/><rect y="6" width="2" height="1" x="5"/><rect y="6" width="5" height="1" x="7"/><rect x="12" y="6" width="1" height="1"/><rect x="4" y="7" width="1" height="6"/><rect x="12" y="7" width="1" height="5"/><rect x="12" y="12" width="1" height="1"/><rect y="13" width="1" height="1" x="4"/><rect width="8" height="1" x="5" y="13"/></g></svg>